<?xml version="1.0" encoding="utf-8"?>
<svg width="1280" height="720" overflow="hidden" xmlns="http://www.w3.org/2000/svg">
  <defs>
    <clipPath id="clip0">
      <rect x="0" y="0" width="1280" height="720"/>
    </clipPath>
  </defs>
  <g clip-path="url(#clip0)">
    <rect width="1268.989" height="441.33" fill="#FFFFFF" style="" y="84.702"/>
    <rect x="61.5001" y="96.5001" width="147" height="39" stroke="#7F7F7F" stroke-linejoin="round" stroke-miterlimit="10" fill="none"/>
    <text fill="#9A0000" font-family="Calibri,Calibri_MSFontService,sans-serif" font-weight="400" font-size="24" transform="translate(95.4527 123)" style="white-space: pre;">TAGGER</text>
    <rect x="371.5" y="96.5001" width="147" height="39" stroke="#7F7F7F" stroke-linejoin="round" stroke-miterlimit="10" fill="none"/>
    <text fill="#9A0000" font-family="Calibri,Calibri_MSFontService,sans-serif" font-weight="400" font-size="24" transform="translate(401.364 123)" style="white-space: pre;">RENAME</text>
    <rect x="681.5" y="96.5001" width="179" height="39" stroke="#7F7F7F" stroke-linejoin="round" stroke-miterlimit="10" fill="none"/>
    <text fill="#9A0000" font-family="Calibri,Calibri_MSFontService,sans-serif" font-weight="400" font-size="24" transform="translate(703.143 123)" style="white-space: pre;">ROWMERGER</text>
    <rect x="1023.5" y="96.5001" width="179" height="39" stroke="#7F7F7F" stroke-linejoin="round" stroke-miterlimit="10" fill="none"/>
    <text fill="#9A0000" font-family="Calibri,Calibri_MSFontService,sans-serif" font-weight="400" font-size="24" transform="translate(1040.83 123)" style="white-space: pre;">TABLEMERGER</text>
    <path d="M208 114 363.839 114 363.839 116 208 116ZM362.505 111 370.505 115 362.505 119Z" fill="#404040"/>
    <path d="M518 114 673.839 114 673.839 116 518 116ZM672.505 111 680.505 115 672.505 119Z" fill="#404040"/>
    <path d="M860 114 1015.84 114 1015.84 116 860 116ZM1014.51 111 1022.51 115 1014.51 119Z" fill="#404040"/>
    <text fill="#404040" font-family="Arial,Arial_MSFontService,sans-serif" font-weight="700" font-size="16" transform="translate(82.6794 181)" style="white-space: pre;">Classification<tspan font-size="16" x="269.201" y="0">Isomers</tspan><tspan font-size="16" x="334.868" y="0">identification</tspan><tspan font-weight="400" font-size="13" x="220.07" y="57">13</tspan><tspan font-weight="400" font-size="13" x="234.736" y="57">-</tspan><tspan font-weight="400" font-size="13" x="239.236" y="57">eicosenoic </tspan><tspan font-weight="400" font-size="13" x="305.57" y="57">acid</tspan><tspan font-weight="400" font-size="13" x="384.756" y="57">15</tspan><tspan font-weight="400" font-size="13" x="399.423" y="57">-</tspan><tspan font-weight="400" font-size="13" x="403.923" y="57">eicosenoic </tspan><tspan font-weight="400" font-size="13" x="470.256" y="57">acid</tspan></text>
    <rect x="387.5" y="285.5" width="105" height="25" stroke="#000000" stroke-linejoin="round" stroke-miterlimit="10" fill="none"/>
    <text font-family="Arial,Arial_MSFontService,sans-serif" font-weight="400" font-size="13" transform="translate(416.421 303)" style="white-space: pre;">FA 20:1<tspan fill="#404040" font-size="15" x="-334.177" y="-85">•</tspan><tspan fill="#404040" font-size="15" x="-316.177" y="-85">Nutrients</tspan><tspan fill="#404040" font-size="15" x="-334.177" y="-59">•</tspan><tspan fill="#404040" font-size="15" x="-316.177" y="-59">Drugs</tspan><tspan fill="#404040" font-size="15" x="-334.177" y="-32">•</tspan><tspan fill="#404040" font-size="15" x="-316.177" y="-32">Plant</tspan><tspan fill="#404040" font-size="15" x="-278.677" y="-32">products</tspan><tspan fill="#404040" font-size="15" x="-334.177" y="-6">•</tspan><tspan fill="#404040" font-size="15" x="-316.177" y="-6">Natural</tspan><tspan fill="#404040" font-size="15" x="-264.843" y="-6">products</tspan><tspan fill="#404040" font-size="15" x="-334.177" y="20">•</tspan><tspan fill="#404040" font-size="15" x="-316.177" y="20">Microbiota</tspan><tspan fill="#404040" font-size="15" x="-248.51" y="20">-</tspan><tspan fill="#404040" font-size="15" x="-243.677" y="20">dependent</tspan><tspan fill="#404040" font-size="15" x="-316.177" y="47">metabolites</tspan><tspan fill="#404040" font-size="15" x="-334.177" y="73">•</tspan><tspan fill="#404040" font-size="15" x="-316.177" y="73">Halogens</tspan><tspan fill="#404040" font-size="15" x="-334.177" y="100">•</tspan><tspan fill="#404040" font-size="15" x="-316.177" y="100">Peptides</tspan><tspan fill="#404040" font-size="13" x="-117.571" y="76">PC(P</tspan><tspan fill="#404040" font-size="13" x="-85.7372" y="76">-</tspan><tspan fill="#404040" font-size="13" x="-81.2372" y="76">18:1(9Z)/0:0)</tspan><tspan fill="#404040" font-size="13" x="36.0629" y="76">PC(O</tspan><tspan fill="#404040" font-size="13" x="69.3962" y="76">-</tspan><tspan fill="#404040" font-size="13" x="73.8962" y="76">18:2(9Z,12Z)/0:0)</tspan></text>
    <rect x="387.5" y="425.5" width="104" height="26" stroke="#000000" stroke-linejoin="round" stroke-miterlimit="10" fill="none"/>
    <text font-family="Arial,Arial_MSFontService,sans-serif" font-weight="400" font-size="13" transform="translate(411.673 443)" style="white-space: pre;">LPC 18:2<tspan fill="#404040" font-weight="700" font-size="16" x="274.864" y="-262">Grouping</tspan><tspan fill="#404040" font-weight="700" font-size="16" x="351.697" y="-262">annotations</tspan><tspan fill="#404040" font-weight="700" font-size="16" x="651.942" y="-261">Merge</tspan><tspan fill="#404040" font-weight="700" font-size="16" x="703.442" y="-261">tables</tspan></text>
    <path d="M648.699 208.945 709.171 208.945 709.171 234.545 648.699 234.545Z" fill="#A5A5A5" fill-rule="evenodd"/>
    <path d="M709.171 208.945 769.644 208.945 769.644 234.545 709.171 234.545Z" fill="#A5A5A5" fill-rule="evenodd"/>
    <path d="M769.644 208.945 830.116 208.945 830.116 234.545 769.644 234.545Z" fill="#A5A5A5" fill-rule="evenodd"/>
    <path d="M830.116 208.945 890.589 208.945 890.589 234.545 830.116 234.545Z" fill="#A5A5A5" fill-rule="evenodd"/>
    <path d="M648.699 234.545 709.171 234.545 709.171 260.145 648.699 260.145Z" fill="#E1E1E1" fill-rule="evenodd"/>
    <path d="M709.171 234.545 769.644 234.545 769.644 260.145 709.171 260.145Z" fill="#E1E1E1" fill-rule="evenodd"/>
    <path d="M769.644 234.545 830.116 234.545 830.116 260.145 769.644 260.145Z" fill="#E1E1E1" fill-rule="evenodd"/>
    <path d="M830.116 234.545 890.589 234.545 890.589 260.145 830.116 260.145Z" fill="#E1E1E1" fill-rule="evenodd"/>
    <path d="M648.699 260.145 709.171 260.145 709.171 285.745 648.699 285.745Z" fill="#F0F0F0" fill-rule="evenodd"/>
    <path d="M709.171 260.145 769.644 260.145 769.644 285.745 709.171 285.745Z" fill="#F0F0F0" fill-rule="evenodd"/>
    <path d="M769.644 260.145 830.116 260.145 830.116 285.745 769.644 285.745Z" fill="#F0F0F0" fill-rule="evenodd"/>
    <path d="M830.116 260.145 890.589 260.145 890.589 285.745 830.116 285.745Z" fill="#F0F0F0" fill-rule="evenodd"/>
    <path d="M648.699 285.745 709.171 285.745 709.171 311.345 648.699 311.345Z" fill="#E1E1E1" fill-rule="evenodd"/>
    <path d="M709.171 285.745 769.644 285.745 769.644 311.345 709.171 311.345Z" fill="#E1E1E1" fill-rule="evenodd"/>
    <path d="M769.644 285.745 830.116 285.745 830.116 311.345 769.644 311.345Z" fill="#E1E1E1" fill-rule="evenodd"/>
    <path d="M830.116 285.745 890.589 285.745 890.589 311.345 830.116 311.345Z" fill="#E1E1E1" fill-rule="evenodd"/>
    <path d="M648.699 311.345 709.171 311.345 709.171 336.945 648.699 336.945Z" fill="#F0F0F0" fill-rule="evenodd"/>
    <path d="M709.171 311.345 769.644 311.345 769.644 336.945 709.171 336.945Z" fill="#F0F0F0" fill-rule="evenodd"/>
    <path d="M769.644 311.345 830.116 311.345 830.116 336.945 769.644 336.945Z" fill="#F0F0F0" fill-rule="evenodd"/>
    <path d="M830.116 311.345 890.589 311.345 890.589 336.945 830.116 336.945Z" fill="#F0F0F0" fill-rule="evenodd"/>
    <path d="M709.171 208.279 709.171 337.612" stroke="#FFFFFF" stroke-width="1.33333" stroke-linejoin="round" stroke-miterlimit="10" fill="none" fill-rule="evenodd"/>
    <path d="M769.644 208.279 769.644 337.612" stroke="#FFFFFF" stroke-width="1.33333" stroke-linejoin="round" stroke-miterlimit="10" fill="none" fill-rule="evenodd"/>
    <path d="M830.116 208.279 830.116 337.612" stroke="#FFFFFF" stroke-width="1.33333" stroke-linejoin="round" stroke-miterlimit="10" fill="none" fill-rule="evenodd"/>
    <path d="M648.032 234.545 891.255 234.545" stroke="#FFFFFF" stroke-width="4" stroke-linejoin="round" stroke-miterlimit="10" fill="none" fill-rule="evenodd"/>
    <path d="M648.032 260.145 891.255 260.145" stroke="#FFFFFF" stroke-width="1.33333" stroke-linejoin="round" stroke-miterlimit="10" fill="none" fill-rule="evenodd"/>
    <path d="M648.032 285.745 891.255 285.745" stroke="#FFFFFF" stroke-width="1.33333" stroke-linejoin="round" stroke-miterlimit="10" fill="none" fill-rule="evenodd"/>
    <path d="M648.032 311.345 891.255 311.345" stroke="#FFFFFF" stroke-width="1.33333" stroke-linejoin="round" stroke-miterlimit="10" fill="none" fill-rule="evenodd"/>
    <path d="M648.699 208.279 648.699 337.612" stroke="#FFFFFF" stroke-width="1.33333" stroke-linejoin="round" stroke-miterlimit="10" fill="none" fill-rule="evenodd"/>
    <path d="M890.589 208.279 890.589 337.612" stroke="#FFFFFF" stroke-width="1.33333" stroke-linejoin="round" stroke-miterlimit="10" fill="none" fill-rule="evenodd"/>
    <path d="M648.032 208.945 891.255 208.945" stroke="#FFFFFF" stroke-width="1.33333" stroke-linejoin="round" stroke-miterlimit="10" fill="none" fill-rule="evenodd"/>
    <path d="M648.032 336.945 891.255 336.945" stroke="#FFFFFF" stroke-width="1.33333" stroke-linejoin="round" stroke-miterlimit="10" fill="none" fill-rule="evenodd"/>
    <text fill="#FFFFFF" font-family="Calibri,Calibri_MSFontService,sans-serif" font-weight="700" font-size="13" transform="translate(664.519 226)" style="white-space: pre;">Mass<tspan font-size="13" x="61.0558" y="0">Error</tspan><tspan font-size="13" x="115.528" y="0">Adduct</tspan><tspan font-size="13" x="179.417" y="0">Name</tspan><tspan fill="#000000" font-weight="400" font-size="13" x="5.33331" y="25">M1</tspan><tspan fill="#000000" font-weight="400" font-size="13" x="68.2224" y="25">E1</tspan><tspan fill="#000000" font-weight="400" font-size="13" x="128.112" y="25">A1</tspan><tspan fill="#000000" font-weight="400" font-size="13" x="188.084" y="25">N1</tspan><tspan fill="#000000" font-weight="400" font-size="13" x="5.33331" y="51">M1</tspan><tspan fill="#000000" font-weight="400" font-size="13" x="68.2224" y="51">E1</tspan><tspan fill="#000000" font-weight="400" font-size="13" x="128.112" y="51">A1</tspan><tspan fill="#000000" font-weight="400" font-size="13" x="188.084" y="51">N2</tspan><tspan fill="#000000" font-weight="400" font-size="13" x="5.33331" y="77">M1</tspan><tspan fill="#000000" font-weight="400" font-size="13" x="68.2224" y="77">E2</tspan><tspan fill="#000000" font-weight="400" font-size="13" x="128.112" y="77">A2</tspan><tspan fill="#000000" font-weight="400" font-size="13" x="188.084" y="77">N3</tspan><tspan fill="#000000" font-weight="400" font-size="13" x="5.33331" y="102">M1</tspan><tspan fill="#000000" font-weight="400" font-size="13" x="68.2224" y="102">E2</tspan><tspan fill="#000000" font-weight="400" font-size="13" x="128.112" y="102">A2</tspan><tspan fill="#000000" font-weight="400" font-size="13" x="188.084" y="102">N4</tspan></text>
    <path d="M636.197 405.669 703.283 405.669 703.283 431.269 636.197 431.269Z" fill="#A5A5A5" fill-rule="evenodd"/>
    <path d="M703.283 405.669 770.37 405.669 770.37 431.269 703.283 431.269Z" fill="#A5A5A5" fill-rule="evenodd"/>
    <path d="M770.37 405.669 837.457 405.669 837.457 431.269 770.37 431.269Z" fill="#A5A5A5" fill-rule="evenodd"/>
    <path d="M837.457 405.669 904.543 405.669 904.543 431.269 837.457 431.269Z" fill="#A5A5A5" fill-rule="evenodd"/>
    <path d="M636.197 431.269 703.283 431.269 703.283 456.869 636.197 456.869Z" fill="#E1E1E1" fill-rule="evenodd"/>
    <path d="M703.283 431.269 770.37 431.269 770.37 456.869 703.283 456.869Z" fill="#E1E1E1" fill-rule="evenodd"/>
    <path d="M770.37 431.269 837.457 431.269 837.457 456.869 770.37 456.869Z" fill="#E1E1E1" fill-rule="evenodd"/>
    <path d="M837.457 431.269 904.543 431.269 904.543 456.869 837.457 456.869Z" fill="#E1E1E1" fill-rule="evenodd"/>
    <path d="M636.197 456.869 703.283 456.869 703.283 482.469 636.197 482.469Z" fill="#F0F0F0" fill-rule="evenodd"/>
    <path d="M703.283 456.869 770.37 456.869 770.37 482.469 703.283 482.469Z" fill="#F0F0F0" fill-rule="evenodd"/>
    <path d="M770.37 456.869 837.457 456.869 837.457 482.469 770.37 482.469Z" fill="#F0F0F0" fill-rule="evenodd"/>
    <path d="M837.457 456.869 904.543 456.869 904.543 482.469 837.457 482.469Z" fill="#F0F0F0" fill-rule="evenodd"/>
    <path d="M703.283 405.002 703.283 483.135" stroke="#FFFFFF" stroke-width="1.33333" stroke-linejoin="round" stroke-miterlimit="10" fill="none" fill-rule="evenodd"/>
    <path d="M770.37 405.002 770.37 483.135" stroke="#FFFFFF" stroke-width="1.33333" stroke-linejoin="round" stroke-miterlimit="10" fill="none" fill-rule="evenodd"/>
    <path d="M837.457 405.002 837.457 483.135" stroke="#FFFFFF" stroke-width="1.33333" stroke-linejoin="round" stroke-miterlimit="10" fill="none" fill-rule="evenodd"/>
    <path d="M635.53 431.269 905.21 431.269" stroke="#FFFFFF" stroke-width="4" stroke-linejoin="round" stroke-miterlimit="10" fill="none" fill-rule="evenodd"/>
    <path d="M635.53 456.869 905.21 456.869" stroke="#FFFFFF" stroke-width="1.33333" stroke-linejoin="round" stroke-miterlimit="10" fill="none" fill-rule="evenodd"/>
    <path d="M636.197 405.002 636.197 483.135" stroke="#FFFFFF" stroke-width="1.33333" stroke-linejoin="round" stroke-miterlimit="10" fill="none" fill-rule="evenodd"/>
    <path d="M904.543 405.002 904.543 483.135" stroke="#FFFFFF" stroke-width="1.33333" stroke-linejoin="round" stroke-miterlimit="10" fill="none" fill-rule="evenodd"/>
    <path d="M635.53 405.669 905.21 405.669" stroke="#FFFFFF" stroke-width="1.33333" stroke-linejoin="round" stroke-miterlimit="10" fill="none" fill-rule="evenodd"/>
    <path d="M635.53 482.469 905.21 482.469" stroke="#FFFFFF" stroke-width="1.33333" stroke-linejoin="round" stroke-miterlimit="10" fill="none" fill-rule="evenodd"/>
    <text fill="#FFFFFF" font-family="Calibri,Calibri_MSFontService,sans-serif" font-weight="700" font-size="13" transform="translate(655.323 422)" style="white-space: pre;">Mass<tspan font-size="13" x="67.6699" y="0">Error</tspan><tspan font-size="13" x="128.757" y="0">Adduct</tspan><tspan font-size="13" x="199.26" y="0">Name</tspan><tspan fill="#000000" font-weight="400" font-size="13" x="5.33331" y="26">M1</tspan><tspan fill="#000000" font-weight="400" font-size="13" x="74.8365" y="26">E1</tspan><tspan fill="#000000" font-weight="400" font-size="13" x="141.34" y="26">A1</tspan><tspan fill="#000000" font-weight="400" font-size="13" x="192.01" y="26">N1 // N2</tspan><tspan fill="#000000" font-weight="400" font-size="13" x="5.33331" y="52">M1</tspan><tspan fill="#000000" font-weight="400" font-size="13" x="74.8365" y="52">E2</tspan><tspan fill="#000000" font-weight="400" font-size="13" x="141.34" y="52">A2</tspan><tspan fill="#000000" font-weight="400" font-size="13" x="192.01" y="52">N3 // N4</tspan></text>
    <path d="M942.5 115.5 942.5 514.628" stroke="#7F7F7F" stroke-width="0.666667" stroke-miterlimit="8" stroke-dasharray="5.33333 2 0.666667 2" fill="none" fill-rule="evenodd"/>
    <path d="M0-0.333333 50.9792-0.333333 50.9792 23.9474 50.3125 23.9474 50.3125 0 50.6459 0.333333 0 0.333333ZM54.6459 22.6141 50.6459 30.6141 46.6459 22.6141Z" fill="#7F7F7F" transform="matrix(1.83697e-16 1 1 -1.83697e-16 357.5 247.5)"/>
    <path d="M523.365 246.5 523.365 297.997 499.167 297.997 499.167 297.33 523.031 297.33 522.698 297.664 522.698 246.5ZM500.5 301.664 492.5 297.664 500.5 293.664Z" fill="#7F7F7F"/>
    <path d="M0-0.333333 50.9011-0.333333 50.9011 23.9475 50.2344 23.9475 50.2344 0 50.5678 0.333333 0 0.333333ZM54.5678 22.6142 50.5678 30.6142 46.5678 22.6142Z" fill="#7F7F7F" transform="matrix(1.83697e-16 1 1 -1.83697e-16 355.5 387.5)"/>
    <path d="M523.448 387.5 523.448 438.401 499.167 438.401 499.167 437.734 523.114 437.734 522.781 438.068 522.781 387.5ZM500.5 442.068 492.5 438.068 500.5 434.068Z" fill="#7F7F7F"/>
    <path d="M760.5 377 765.75 377 765.75 356.5 776.25 356.5 776.25 377 781.5 377 771 387.5Z" stroke="#787878" stroke-width="1.33333" stroke-miterlimit="8" fill="#A5A5A5" fill-rule="evenodd"/>
    <path d="M988.968 222.102 1043.77 222.102 1043.77 247.702 988.968 247.702Z" fill="#A5A5A5" fill-rule="evenodd"/>
    <path d="M1043.77 222.102 1098.57 222.102 1098.57 247.702 1043.77 247.702Z" fill="#A5A5A5" fill-rule="evenodd"/>
    <path d="M988.968 247.702 1043.77 247.702 1043.77 273.302 988.968 273.302Z" fill="#E1E1E1" fill-rule="evenodd"/>
    <path d="M1043.77 247.702 1098.57 247.702 1098.57 273.302 1043.77 273.302Z" fill="#E1E1E1" fill-rule="evenodd"/>
    <path d="M988.968 273.302 1043.77 273.302 1043.77 298.902 988.968 298.902Z" fill="#F0F0F0" fill-rule="evenodd"/>
    <path d="M1043.77 273.302 1098.57 273.302 1098.57 298.902 1043.77 298.902Z" fill="#F0F0F0" fill-rule="evenodd"/>
    <path d="M988.968 298.902 1043.77 298.902 1043.77 324.502 988.968 324.502Z" fill="#E1E1E1" fill-rule="evenodd"/>
    <path d="M1043.77 298.902 1098.57 298.902 1098.57 324.502 1043.77 324.502Z" fill="#E1E1E1" fill-rule="evenodd"/>
    <path d="M1043.77 221.435 1043.77 325.168" stroke="#FFFFFF" stroke-width="1.33333" stroke-linejoin="round" stroke-miterlimit="10" fill="none" fill-rule="evenodd"/>
    <path d="M988.301 247.702 1099.24 247.702" stroke="#FFFFFF" stroke-width="4" stroke-linejoin="round" stroke-miterlimit="10" fill="none" fill-rule="evenodd"/>
    <path d="M988.301 273.302 1099.24 273.302" stroke="#FFFFFF" stroke-width="1.33333" stroke-linejoin="round" stroke-miterlimit="10" fill="none" fill-rule="evenodd"/>
    <path d="M988.301 298.902 1099.24 298.902" stroke="#FFFFFF" stroke-width="1.33333" stroke-linejoin="round" stroke-miterlimit="10" fill="none" fill-rule="evenodd"/>
    <path d="M988.968 221.435 988.968 325.168" stroke="#FFFFFF" stroke-width="1.33333" stroke-linejoin="round" stroke-miterlimit="10" fill="none" fill-rule="evenodd"/>
    <path d="M1098.57 221.435 1098.57 325.168" stroke="#FFFFFF" stroke-width="1.33333" stroke-linejoin="round" stroke-miterlimit="10" fill="none" fill-rule="evenodd"/>
    <path d="M988.301 222.102 1099.24 222.102" stroke="#FFFFFF" stroke-width="1.33333" stroke-linejoin="round" stroke-miterlimit="10" fill="none" fill-rule="evenodd"/>
    <path d="M988.301 324.502 1099.24 324.502" stroke="#FFFFFF" stroke-width="1.33333" stroke-linejoin="round" stroke-miterlimit="10" fill="none" fill-rule="evenodd"/>
    <text fill="#FFFFFF" font-family="Calibri,Calibri_MSFontService,sans-serif" font-weight="700" font-size="13" transform="translate(1010.45 239)" style="white-space: pre;">ID<tspan font-size="13" x="46.3031" y="0">Mass</tspan><tspan fill="#000000" font-weight="400" font-size="13" x="-3.25" y="26">ID1</tspan><tspan fill="#000000" font-weight="400" font-size="13" x="51.6365" y="26">M1</tspan><tspan fill="#000000" font-weight="400" font-size="13" x="-3.25" y="51">ID2</tspan><tspan fill="#000000" font-weight="400" font-size="13" x="51.6365" y="51">M2</tspan><tspan fill="#000000" font-weight="400" font-size="13" x="-3.25" y="77">ID3</tspan><tspan fill="#000000" font-weight="400" font-size="13" x="51.6365" y="77">M3</tspan></text>
    <path d="M1128.23 222.214 1180.74 222.214 1180.74 247.814 1128.23 247.814Z" fill="#A5A5A5" fill-rule="evenodd"/>
    <path d="M1180.74 222.214 1233.26 222.214 1233.26 247.814 1180.74 247.814Z" fill="#A5A5A5" fill-rule="evenodd"/>
    <path d="M1128.23 247.814 1180.74 247.814 1180.74 273.414 1128.23 273.414Z" fill="#E1E1E1" fill-rule="evenodd"/>
    <path d="M1180.74 247.814 1233.26 247.814 1233.26 273.414 1180.74 273.414Z" fill="#E1E1E1" fill-rule="evenodd"/>
    <path d="M1128.23 273.414 1180.74 273.414 1180.74 299.014 1128.23 299.014Z" fill="#F0F0F0" fill-rule="evenodd"/>
    <path d="M1180.74 273.414 1233.26 273.414 1233.26 299.014 1180.74 299.014Z" fill="#F0F0F0" fill-rule="evenodd"/>
    <path d="M1128.23 299.014 1180.74 299.014 1180.74 324.614 1128.23 324.614Z" fill="#E1E1E1" fill-rule="evenodd"/>
    <path d="M1180.74 299.014 1233.26 299.014 1233.26 324.614 1180.74 324.614Z" fill="#E1E1E1" fill-rule="evenodd"/>
    <path d="M1180.74 221.548 1180.74 325.281" stroke="#FFFFFF" stroke-width="1.33333" stroke-linejoin="round" stroke-miterlimit="10" fill="none" fill-rule="evenodd"/>
    <path d="M1127.56 247.814 1233.92 247.814" stroke="#FFFFFF" stroke-width="4" stroke-linejoin="round" stroke-miterlimit="10" fill="none" fill-rule="evenodd"/>
    <path d="M1127.56 273.414 1233.92 273.414" stroke="#FFFFFF" stroke-width="1.33333" stroke-linejoin="round" stroke-miterlimit="10" fill="none" fill-rule="evenodd"/>
    <path d="M1127.56 299.014 1233.92 299.014" stroke="#FFFFFF" stroke-width="1.33333" stroke-linejoin="round" stroke-miterlimit="10" fill="none" fill-rule="evenodd"/>
    <path d="M1128.23 221.548 1128.23 325.281" stroke="#FFFFFF" stroke-width="1.33333" stroke-linejoin="round" stroke-miterlimit="10" fill="none" fill-rule="evenodd"/>
    <path d="M1233.26 221.548 1233.26 325.281" stroke="#FFFFFF" stroke-width="1.33333" stroke-linejoin="round" stroke-miterlimit="10" fill="none" fill-rule="evenodd"/>
    <path d="M1127.56 222.214 1233.92 222.214" stroke="#FFFFFF" stroke-width="1.33333" stroke-linejoin="round" stroke-miterlimit="10" fill="none" fill-rule="evenodd"/>
    <path d="M1127.56 324.614 1233.92 324.614" stroke="#FFFFFF" stroke-width="1.33333" stroke-linejoin="round" stroke-miterlimit="10" fill="none" fill-rule="evenodd"/>
    <text fill="#FFFFFF" font-family="Calibri,Calibri_MSFontService,sans-serif" font-weight="700" font-size="13" transform="translate(1140.07 239)" style="white-space: pre;">Mass<tspan font-size="13" x="50.5135" y="0">Name</tspan><tspan fill="#000000" font-weight="400" font-size="13" x="5.33337" y="26">M1</tspan><tspan fill="#000000" font-weight="400" font-size="13" x="59.1802" y="26">N1</tspan><tspan fill="#000000" font-weight="400" font-size="13" x="5.33337" y="51">M2</tspan><tspan fill="#000000" font-weight="400" font-size="13" x="59.1802" y="51">N2</tspan><tspan fill="#000000" font-weight="400" font-size="13" x="5.33337" y="77">M3</tspan><tspan fill="#000000" font-weight="400" font-size="13" x="59.1802" y="77">N3</tspan></text>
    <path d="M1026.28 395.386 1083.73 395.386 1083.73 420.986 1026.28 420.986Z" fill="#A5A5A5" fill-rule="evenodd"/>
    <path d="M1083.73 395.386 1141.17 395.386 1141.17 420.986 1083.73 420.986Z" fill="#A5A5A5" fill-rule="evenodd"/>
    <path d="M1141.17 395.386 1198.61 395.386 1198.61 420.986 1141.17 420.986Z" fill="#A5A5A5" fill-rule="evenodd"/>
    <path d="M1026.28 420.986 1083.73 420.986 1083.73 446.586 1026.28 446.586Z" fill="#E1E1E1" fill-rule="evenodd"/>
    <path d="M1083.73 420.986 1141.17 420.986 1141.17 446.586 1083.73 446.586Z" fill="#E1E1E1" fill-rule="evenodd"/>
    <path d="M1141.17 420.986 1198.61 420.986 1198.61 446.586 1141.17 446.586Z" fill="#E1E1E1" fill-rule="evenodd"/>
    <path d="M1026.28 446.586 1083.73 446.586 1083.73 472.186 1026.28 472.186Z" fill="#F0F0F0" fill-rule="evenodd"/>
    <path d="M1083.73 446.586 1141.17 446.586 1141.17 472.186 1083.73 472.186Z" fill="#F0F0F0" fill-rule="evenodd"/>
    <path d="M1141.17 446.586 1198.61 446.586 1198.61 472.186 1141.17 472.186Z" fill="#F0F0F0" fill-rule="evenodd"/>
    <path d="M1026.28 472.186 1083.73 472.186 1083.73 497.786 1026.28 497.786Z" fill="#E1E1E1" fill-rule="evenodd"/>
    <path d="M1083.73 472.186 1141.17 472.186 1141.17 497.786 1083.73 497.786Z" fill="#E1E1E1" fill-rule="evenodd"/>
    <path d="M1141.17 472.186 1198.61 472.186 1198.61 497.786 1141.17 497.786Z" fill="#E1E1E1" fill-rule="evenodd"/>
    <path d="M1083.73 394.719 1083.73 498.453" stroke="#FFFFFF" stroke-width="1.33333" stroke-linejoin="round" stroke-miterlimit="10" fill="none" fill-rule="evenodd"/>
    <path d="M1141.17 394.719 1141.17 498.453" stroke="#FFFFFF" stroke-width="1.33333" stroke-linejoin="round" stroke-miterlimit="10" fill="none" fill-rule="evenodd"/>
    <path d="M1025.62 420.986 1199.28 420.986" stroke="#FFFFFF" stroke-width="4" stroke-linejoin="round" stroke-miterlimit="10" fill="none" fill-rule="evenodd"/>
    <path d="M1025.62 446.586 1199.28 446.586" stroke="#FFFFFF" stroke-width="1.33333" stroke-linejoin="round" stroke-miterlimit="10" fill="none" fill-rule="evenodd"/>
    <path d="M1025.62 472.186 1199.28 472.186" stroke="#FFFFFF" stroke-width="1.33333" stroke-linejoin="round" stroke-miterlimit="10" fill="none" fill-rule="evenodd"/>
    <path d="M1026.28 394.719 1026.28 498.453" stroke="#FFFFFF" stroke-width="1.33333" stroke-linejoin="round" stroke-miterlimit="10" fill="none" fill-rule="evenodd"/>
    <path d="M1198.61 394.719 1198.61 498.453" stroke="#FFFFFF" stroke-width="1.33333" stroke-linejoin="round" stroke-miterlimit="10" fill="none" fill-rule="evenodd"/>
    <path d="M1025.62 395.386 1199.28 395.386" stroke="#FFFFFF" stroke-width="1.33333" stroke-linejoin="round" stroke-miterlimit="10" fill="none" fill-rule="evenodd"/>
    <path d="M1025.62 497.786 1199.28 497.786" stroke="#FFFFFF" stroke-width="1.33333" stroke-linejoin="round" stroke-miterlimit="10" fill="none" fill-rule="evenodd"/>
    <text fill="#FFFFFF" font-family="Calibri,Calibri_MSFontService,sans-serif" font-weight="700" font-size="13" transform="translate(1049.09 412)" style="white-space: pre;">ID<tspan font-size="13" x="48.9441" y="0">Mass</tspan><tspan font-size="13" x="104.388" y="0">Name</tspan><tspan fill="#000000" font-weight="400" font-size="13" x="-3.25" y="26">ID1</tspan><tspan fill="#000000" font-weight="400" font-size="13" x="54.2775" y="26">M1</tspan><tspan fill="#000000" font-weight="400" font-size="13" x="113.055" y="26">N1</tspan><tspan fill="#000000" font-weight="400" font-size="13" x="-3.25" y="51">ID2</tspan><tspan fill="#000000" font-weight="400" font-size="13" x="54.2775" y="51">M2</tspan><tspan fill="#000000" font-weight="400" font-size="13" x="113.055" y="51">N2</tspan><tspan fill="#000000" font-weight="400" font-size="13" x="-3.25" y="77">ID3</tspan><tspan fill="#000000" font-weight="400" font-size="13" x="54.2775" y="77">M3</tspan><tspan fill="#000000" font-weight="400" font-size="13" x="113.055" y="77">N3</tspan></text>
    <path d="M1103.5 366 1108.75 366 1108.75 344.5 1119.25 344.5 1119.25 366 1124.5 366 1114 376.5Z" stroke="#787878" stroke-width="1.33333" stroke-miterlimit="8" fill="#A5A5A5" fill-rule="evenodd"/>
    <path d="M603.5 115.5 603.5 514.628" stroke="#7F7F7F" stroke-width="0.666667" stroke-miterlimit="8" stroke-dasharray="5.33333 2 0.666667 2" fill="none" fill-rule="evenodd"/>
    <path d="M281.5 115.5 281.5 514.628" stroke="#7F7F7F" stroke-width="0.666667" stroke-miterlimit="8" stroke-dasharray="5.33333 2 0.666667 2" fill="none" fill-rule="evenodd"/>
    <path d="M0 0 1253.24 0.000104987" stroke="#7F7F7F" stroke-width="0.666667" stroke-miterlimit="8" stroke-dasharray="5.33333 2 0.666667 2" fill="none" fill-rule="evenodd" transform="matrix(-1 0 0 1 1258.74 514.5)"/>
    <path d="M1259.5 115.5 1259.5 514.628" stroke="#7F7F7F" stroke-width="0.666667" stroke-miterlimit="8" stroke-dasharray="5.33333 2 0.666667 2" fill="none" fill-rule="evenodd"/>
    <path d="M5.50005 115.5 5.50016 512.471" stroke="#7F7F7F" stroke-width="0.666667" stroke-miterlimit="8" stroke-dasharray="5.33333 2 0.666667 2" fill="none" fill-rule="evenodd"/>
    <path d="M1106.28 269.766 1111.77 269.766 1111.77 265.018 1116.23 265.018 1116.23 269.766 1121.72 269.766 1121.72 274.234 1116.23 274.234 1116.23 278.982 1111.77 278.982 1111.77 274.234 1106.28 274.234Z" stroke="#787878" stroke-width="1.33333" stroke-miterlimit="8" fill="#A5A5A5" fill-rule="evenodd"/>
    <path d="M0 0 56.4154 0.000104987" stroke="#7F7F7F" stroke-width="0.666667" stroke-miterlimit="8" stroke-dasharray="5.33333 2 0.666667 2" fill="none" fill-rule="evenodd" transform="matrix(-1 0 0 1 1258.92 115.5)"/>
    <path d="M0 0 56.4154 0.000104987" stroke="#7F7F7F" stroke-width="0.666667" stroke-miterlimit="8" stroke-dasharray="5.33333 2 0.666667 2" fill="none" fill-rule="evenodd" transform="matrix(-1 0 0 1 61.9155 115.5)"/>
  </g>
</svg>