<svg width="960" height="416" xmlns="http://www.w3.org/2000/svg" xmlns:xlink="http://www.w3.org/1999/xlink" overflow="hidden"><defs><clipPath id="clip0"><rect x="0" y="0" width="960" height="416"/></clipPath><clipPath id="clip1"><rect x="881" y="64" width="49" height="114"/></clipPath></defs><g clip-path="url(#clip0)"><rect x="0" y="0" width="960" height="416.334" fill="#FFFFFF"/><rect x="43.5001" y="10.5085" width="128" height="35.0281" stroke="#7F7F7F" stroke-linejoin="round" stroke-miterlimit="10" fill="none"/><text fill="#9A0000" font-family="Calibri,Calibri_MSFontService,sans-serif" font-weight="400" font-size="21" transform="matrix(1 0 0 1.0008 72.1447 35)">TAGGER</text><rect x="248.5" y="10.5085" width="176" height="35.0281" stroke="#7F7F7F" stroke-linejoin="round" stroke-miterlimit="10" fill="none"/><text fill="#9A0000" font-family="Calibri,Calibri_MSFontService,sans-serif" font-weight="400" font-size="21" transform="matrix(1 0 0 1.0008 297.242 35)">RENAME</text><rect x="472.5" y="10.5085" width="215" height="35.0281" stroke="#7F7F7F" stroke-linejoin="round" stroke-miterlimit="10" fill="none"/><text fill="#9A0000" font-family="Calibri,Calibri_MSFontService,sans-serif" font-weight="400" font-size="21" transform="matrix(1 0 0 1.0008 519.4 35)">ROWMERGER</text><rect x="716.5" y="10.5085" width="215" height="35.0281" stroke="#7F7F7F" stroke-linejoin="round" stroke-miterlimit="10" fill="none"/><text fill="#9A0000" font-family="Calibri,Calibri_MSFontService,sans-serif" font-weight="400" font-size="21" transform="matrix(1 0 0 1.0008 759.444 35)">TABLEMERGER</text><path d="M171 26.0209 241.257 26.0209 241.257 28.0226 171 28.0225ZM239.924 23.0185 247.924 27.0218 239.924 31.025Z" fill="#404040"/><path d="M424 26.0209 465.99 26.0209 465.99 28.0225 424 28.0225ZM464.657 23.0185 472.657 27.0218 464.657 31.0249Z" fill="#404040"/><path d="M687 26.0209 709.873 26.0209 709.873 28.0225 687 28.0225ZM708.54 23.0185 716.54 27.0218 708.54 31.0249Z" fill="#404040"/><text fill="#404040" font-family="Arial,Arial_MSFontService,sans-serif" font-weight="700" font-size="16" transform="matrix(1 0 0 1.0008 59.9313 85)">Classification<tspan font-size="16" x="191.554" y="0">Isomers</tspan><tspan font-size="16" x="257.221" y="0">identification</tspan><tspan font-weight="400" font-size="18" x="205.367" y="41.9663">13</tspan><tspan font-weight="400" font-size="18" x="225.034" y="41.9663">-</tspan><tspan font-weight="400" font-size="18" x="176.281" y="62.9495">eicosenoic </tspan><tspan font-weight="400" font-size="18" x="201.867" y="83.9327">acid</tspan><tspan font-weight="400" font-size="18" x="319.443" y="41.9663">15</tspan><tspan font-weight="400" font-size="18" x="339.11" y="41.9663">-</tspan><tspan font-weight="400" font-size="18" x="290.356" y="62.9495">eicosenoic </tspan><tspan font-weight="400" font-size="18" x="315.943" y="83.9327">acid</tspan></text><rect x="296.5" y="187.65" width="77" height="29.0233" stroke="#000000" stroke-linejoin="round" stroke-miterlimit="10" fill="none"/><text font-family="Arial,Arial_MSFontService,sans-serif" font-weight="400" font-size="16" transform="matrix(1 0 0 1.0008 307.115 208)">FA 20:1<tspan fill="#404040" font-size="18" x="-282.835" y="-70.9431">•</tspan><tspan fill="#404040" font-size="18" x="-269.635" y="-70.9431">Nutrients</tspan><tspan fill="#404040" font-size="18" x="-282.835" y="-38.9688">•</tspan><tspan fill="#404040" font-size="18" x="-269.635" y="-38.9688">Drugs</tspan><tspan fill="#404040" font-size="18" x="-282.835" y="-6.99439">•</tspan><tspan fill="#404040" font-size="18" x="-269.635" y="-6.99439">Plant</tspan><tspan fill="#404040" font-size="18" x="-224.469" y="-6.99439">products</tspan><tspan fill="#404040" font-size="18" x="-282.835" y="24.98">•</tspan><tspan fill="#404040" font-size="18" x="-269.635" y="24.98">Natural</tspan><tspan fill="#404040" font-size="18" x="-207.969" y="24.98">products</tspan><tspan fill="#404040" font-size="18" x="-282.835" y="56.9543">•</tspan><tspan fill="#404040" font-size="18" x="-269.635" y="56.9543">Microbiota</tspan><tspan fill="#404040" font-size="18" x="-188.135" y="56.9543">-</tspan><tspan fill="#404040" font-size="18" x="-182.302" y="56.9543">dependent</tspan><tspan fill="#404040" font-size="18" x="-269.635" y="88.9287">metabolites</tspan><tspan fill="#404040" font-size="18" x="-282.835" y="119.904">•</tspan><tspan fill="#404040" font-size="18" x="-269.635" y="119.904">Halogens</tspan><tspan fill="#404040" font-size="18" x="-282.835" y="151.878">•</tspan><tspan fill="#404040" font-size="18" x="-269.635" y="151.878">Peptides</tspan><tspan fill="#404040" font-size="16" x="-59.7761" y="61.9503">PC(P</tspan><tspan fill="#404040" font-size="16" x="-22.2761" y="61.9503">-</tspan><tspan fill="#404040" font-size="16" x="-83.4427" y="80.9351">18:1(9Z)/0:0)</tspan><tspan fill="#404040" font-size="16" x="61.144" y="60.9511">PC(O</tspan><tspan fill="#404040" font-size="16" x="100.311" y="60.9511">-</tspan><tspan fill="#404040" font-size="16" x="22.7306" y="79.9359">18:2(9Z,12Z)/0:0)</tspan></text><rect x="290.5" y="344.776" width="99" height="31.0249" stroke="#000000" stroke-linejoin="round" stroke-miterlimit="10" fill="none"/><text font-family="Arial,Arial_MSFontService,sans-serif" font-weight="400" font-size="18" transform="matrix(1 0 0 1.0008 303.117 367)">LPC 18:2<tspan fill="#404040" font-weight="700" font-size="16" x="192.284" y="-281.774">Grouping</tspan><tspan fill="#404040" font-weight="700" font-size="16" x="269.118" y="-281.774">annotations</tspan><tspan fill="#404040" font-weight="700" font-size="16" x="471.076" y="-282.773">Merge</tspan><tspan fill="#404040" font-weight="700" font-size="16" x="522.576" y="-282.773">tables</tspan></text><path d="M465.764 121.395 522.672 121.395 522.672 144.934 465.764 144.934Z" fill="#A5A5A5" fill-rule="evenodd"/><path d="M522.672 121.395 579.581 121.395 579.581 144.934 522.672 144.934Z" fill="#A5A5A5" fill-rule="evenodd"/><path d="M579.581 121.395 636.49 121.395 636.49 144.934 579.581 144.934Z" fill="#A5A5A5" fill-rule="evenodd"/><path d="M636.49 121.395 693.398 121.395 693.398 144.934 636.49 144.934Z" fill="#A5A5A5" fill-rule="evenodd"/><path d="M465.764 144.934 522.672 144.934 522.672 168.474 465.764 168.474Z" fill="#E1E1E1" fill-rule="evenodd"/><path d="M522.672 144.934 579.581 144.934 579.581 168.474 522.672 168.474Z" fill="#E1E1E1" fill-rule="evenodd"/><path d="M579.581 144.934 636.49 144.934 636.49 168.474 579.581 168.474Z" fill="#E1E1E1" fill-rule="evenodd"/><path d="M636.49 144.934 693.398 144.934 693.398 168.474 636.49 168.474Z" fill="#E1E1E1" fill-rule="evenodd"/><path d="M465.764 168.474 522.672 168.474 522.672 192.013 465.764 192.013Z" fill="#F0F0F0" fill-rule="evenodd"/><path d="M522.672 168.474 579.581 168.474 579.581 192.013 522.672 192.013Z" fill="#F0F0F0" fill-rule="evenodd"/><path d="M579.581 168.474 636.49 168.474 636.49 192.013 579.581 192.013Z" fill="#F0F0F0" fill-rule="evenodd"/><path d="M636.49 168.474 693.398 168.474 693.398 192.013 636.49 192.013Z" fill="#F0F0F0" fill-rule="evenodd"/><path d="M465.764 192.013 522.672 192.013 522.672 215.553 465.764 215.553Z" fill="#E1E1E1" fill-rule="evenodd"/><path d="M522.672 192.013 579.581 192.013 579.581 215.553 522.672 215.553Z" fill="#E1E1E1" fill-rule="evenodd"/><path d="M579.581 192.013 636.49 192.013 636.49 215.553 579.581 215.553Z" fill="#E1E1E1" fill-rule="evenodd"/><path d="M636.49 192.013 693.398 192.013 693.398 215.553 636.49 215.553Z" fill="#E1E1E1" fill-rule="evenodd"/><path d="M465.764 215.553 522.672 215.553 522.672 239.092 465.764 239.092Z" fill="#F0F0F0" fill-rule="evenodd"/><path d="M522.672 215.553 579.581 215.553 579.581 239.092 522.672 239.092Z" fill="#F0F0F0" fill-rule="evenodd"/><path d="M579.581 215.553 636.49 215.553 636.49 239.092 579.581 239.092Z" fill="#F0F0F0" fill-rule="evenodd"/><path d="M636.49 215.553 693.398 215.553 693.398 239.092 636.49 239.092Z" fill="#F0F0F0" fill-rule="evenodd"/><path d="M522.672 120.727 522.672 239.759" stroke="#FFFFFF" stroke-width="1.33333" stroke-linejoin="round" stroke-miterlimit="10" fill="none" fill-rule="evenodd"/><path d="M579.581 120.727 579.581 239.759" stroke="#FFFFFF" stroke-width="1.33333" stroke-linejoin="round" stroke-miterlimit="10" fill="none" fill-rule="evenodd"/><path d="M636.49 120.727 636.49 239.759" stroke="#FFFFFF" stroke-width="1.33333" stroke-linejoin="round" stroke-miterlimit="10" fill="none" fill-rule="evenodd"/><path d="M465.097 144.934 694.065 144.934" stroke="#FFFFFF" stroke-width="4" stroke-linejoin="round" stroke-miterlimit="10" fill="none" fill-rule="evenodd"/><path d="M465.097 168.474 694.065 168.474" stroke="#FFFFFF" stroke-width="1.33333" stroke-linejoin="round" stroke-miterlimit="10" fill="none" fill-rule="evenodd"/><path d="M465.097 192.013 694.065 192.013" stroke="#FFFFFF" stroke-width="1.33333" stroke-linejoin="round" stroke-miterlimit="10" fill="none" fill-rule="evenodd"/><path d="M465.097 215.553 694.065 215.553" stroke="#FFFFFF" stroke-width="1.33333" stroke-linejoin="round" stroke-miterlimit="10" fill="none" fill-rule="evenodd"/><path d="M465.764 120.727 465.764 239.759" stroke="#FFFFFF" stroke-width="1.33333" stroke-linejoin="round" stroke-miterlimit="10" fill="none" fill-rule="evenodd"/><path d="M693.398 120.727 693.398 239.759" stroke="#FFFFFF" stroke-width="1.33333" stroke-linejoin="round" stroke-miterlimit="10" fill="none" fill-rule="evenodd"/><path d="M465.097 121.395 694.065 121.395" stroke="#FFFFFF" stroke-width="1.33333" stroke-linejoin="round" stroke-miterlimit="10" fill="none" fill-rule="evenodd"/><path d="M465.097 239.092 694.065 239.092" stroke="#FFFFFF" stroke-width="1.33333" stroke-linejoin="round" stroke-miterlimit="10" fill="none" fill-rule="evenodd"/><text fill="#FFFFFF" font-family="Calibri,Calibri_MSFontService,sans-serif" font-weight="700" font-size="13" transform="matrix(1 0 0 1.0008 479.801 137)">Mass<tspan font-size="13" x="57.492" y="0">Error</tspan><tspan font-size="13" x="108.401" y="0">Adduct</tspan><tspan font-size="13" x="168.726" y="0">Name</tspan><tspan fill="#000000" font-weight="400" font-size="13" x="5.33334" y="23.9808">M1</tspan><tspan fill="#000000" font-weight="400" font-size="13" x="64.6587" y="23.9808">E1</tspan><tspan fill="#000000" font-weight="400" font-size="13" x="120.984" y="23.9808">A1</tspan><tspan fill="#000000" font-weight="400" font-size="13" x="177.393" y="23.9808">N1</tspan><tspan fill="#000000" font-weight="400" font-size="13" x="5.33334" y="46.9623">M1</tspan><tspan fill="#000000" font-weight="400" font-size="13" x="64.6587" y="46.9623">E1</tspan><tspan fill="#000000" font-weight="400" font-size="13" x="120.984" y="46.9623">A1</tspan><tspan fill="#000000" font-weight="400" font-size="13" x="177.393" y="46.9623">N2</tspan><tspan fill="#000000" font-weight="400" font-size="13" x="5.33334" y="70.9431">M1</tspan><tspan fill="#000000" font-weight="400" font-size="13" x="64.6587" y="70.9431">E2</tspan><tspan fill="#000000" font-weight="400" font-size="13" x="120.984" y="70.9431">A2</tspan><tspan fill="#000000" font-weight="400" font-size="13" x="177.393" y="70.9431">N3</tspan><tspan fill="#000000" font-weight="400" font-size="13" x="5.33334" y="94.9239">M1</tspan><tspan fill="#000000" font-weight="400" font-size="13" x="64.6587" y="94.9239">E2</tspan><tspan fill="#000000" font-weight="400" font-size="13" x="120.984" y="94.9239">A2</tspan><tspan fill="#000000" font-weight="400" font-size="13" x="177.393" y="94.9239">N4</tspan></text><path d="M462.47 293.518 521.337 293.518 521.337 317.058 462.47 317.058Z" fill="#A5A5A5" fill-rule="evenodd"/><path d="M521.337 293.518 566.813 293.518 566.813 317.058 521.337 317.058Z" fill="#A5A5A5" fill-rule="evenodd"/><path d="M566.813 293.518 628.555 293.518 628.555 317.058 566.813 317.058Z" fill="#A5A5A5" fill-rule="evenodd"/><path d="M628.555 293.518 697.939 293.518 697.939 317.058 628.555 317.058Z" fill="#A5A5A5" fill-rule="evenodd"/><path d="M462.47 317.058 521.337 317.058 521.337 340.597 462.47 340.597Z" fill="#E1E1E1" fill-rule="evenodd"/><path d="M521.337 317.058 566.813 317.058 566.813 340.597 521.337 340.597Z" fill="#E1E1E1" fill-rule="evenodd"/><path d="M566.813 317.058 628.555 317.058 628.555 340.597 566.813 340.597Z" fill="#E1E1E1" fill-rule="evenodd"/><path d="M628.555 317.058 697.939 317.058 697.939 340.597 628.555 340.597Z" fill="#E1E1E1" fill-rule="evenodd"/><path d="M462.47 340.597 521.337 340.597 521.337 364.137 462.47 364.137Z" fill="#F0F0F0" fill-rule="evenodd"/><path d="M521.337 340.597 566.813 340.597 566.813 364.137 521.337 364.137Z" fill="#F0F0F0" fill-rule="evenodd"/><path d="M566.813 340.597 628.555 340.597 628.555 364.137 566.813 364.137Z" fill="#F0F0F0" fill-rule="evenodd"/><path d="M628.555 340.597 697.939 340.597 697.939 364.137 628.555 364.137Z" fill="#F0F0F0" fill-rule="evenodd"/><path d="M521.337 292.851 521.337 364.804" stroke="#FFFFFF" stroke-width="1.33333" stroke-linejoin="round" stroke-miterlimit="10" fill="none" fill-rule="evenodd"/><path d="M566.813 292.851 566.813 364.804" stroke="#FFFFFF" stroke-width="1.33333" stroke-linejoin="round" stroke-miterlimit="10" fill="none" fill-rule="evenodd"/><path d="M628.555 292.851 628.555 364.804" stroke="#FFFFFF" stroke-width="1.33333" stroke-linejoin="round" stroke-miterlimit="10" fill="none" fill-rule="evenodd"/><path d="M461.803 317.058 698.606 317.058" stroke="#FFFFFF" stroke-width="4" stroke-linejoin="round" stroke-miterlimit="10" fill="none" fill-rule="evenodd"/><path d="M461.803 340.597 698.606 340.597" stroke="#FFFFFF" stroke-width="1.33333" stroke-linejoin="round" stroke-miterlimit="10" fill="none" fill-rule="evenodd"/><path d="M462.47 292.851 462.47 364.804" stroke="#FFFFFF" stroke-width="1.33333" stroke-linejoin="round" stroke-miterlimit="10" fill="none" fill-rule="evenodd"/><path d="M697.939 292.851 697.939 364.804" stroke="#FFFFFF" stroke-width="1.33333" stroke-linejoin="round" stroke-miterlimit="10" fill="none" fill-rule="evenodd"/><path d="M461.803 293.518 698.606 293.518" stroke="#FFFFFF" stroke-width="1.33333" stroke-linejoin="round" stroke-miterlimit="10" fill="none" fill-rule="evenodd"/><path d="M461.803 364.137 698.606 364.137" stroke="#FFFFFF" stroke-width="1.33333" stroke-linejoin="round" stroke-miterlimit="10" fill="none" fill-rule="evenodd"/><text fill="#FFFFFF" font-family="Calibri,Calibri_MSFontService,sans-serif" font-weight="700" font-size="13" transform="matrix(1 0 0 1.0008 477.487 310)">Mass<tspan font-size="13" x="52.7551" y="0">Error</tspan><tspan font-size="13" x="100.364" y="0">Adduct</tspan><tspan font-size="13" x="169.344" y="0">Name</tspan><tspan fill="#000000" font-weight="400" font-size="13" x="5.33334" y="22.9816">M1</tspan><tspan fill="#000000" font-weight="400" font-size="13" x="59.9218" y="22.9816">E1</tspan><tspan fill="#000000" font-weight="400" font-size="13" x="112.947" y="22.9816">A1</tspan><tspan fill="#000000" font-weight="400" font-size="13" x="162.094" y="22.9816">N1 // N2</tspan><tspan fill="#000000" font-weight="400" font-size="13" x="5.33334" y="46.9623">M1</tspan><tspan fill="#000000" font-weight="400" font-size="13" x="59.9218" y="46.9623">E2</tspan><tspan fill="#000000" font-weight="400" font-size="13" x="112.947" y="46.9623">A2</tspan><tspan fill="#000000" font-weight="400" font-size="13" x="162.094" y="46.9623">N3 // N4</tspan></text><path d="M702.5 34.5277 706.958 400.597" stroke="#7F7F7F" stroke-width="0.666667" stroke-miterlimit="8" stroke-dasharray="5.33333 2 0.666667 2" fill="none" fill-rule="evenodd"/><path d="M0-0.333333 22.9191-0.333333 22.9191 11.1312 22.2524 11.1312 22.2524 0 22.5857 0.333333 0 0.333333ZM26.5857 9.7979 22.5857 17.7979 18.5857 9.7979Z" fill="#7F7F7F" transform="matrix(1.83697e-16 1.0008 1 -1.83844e-16 278.5 179.644)"/><path d="M393.327 179.644 393.327 202.581 380.167 202.581 380.167 201.914 392.993 201.914 392.66 202.248 392.66 179.644ZM381.5 206.251 373.5 202.248 381.5 198.245Z" fill="#7F7F7F"/><path d="M0-0.333333 62.912-0.333333 62.912 14.9258 62.2454 14.9258 62.2454 0 62.5787 0.333333 0 0.333333ZM66.5787 13.5924 62.5787 21.5924 58.5787 13.5924Z" fill="#7F7F7F" transform="matrix(1.83697e-16 1.0008 1 -1.83844e-16 269.5 297.739)"/><path d="M405.717 295.737 405.717 360.526 396.167 360.526 396.167 359.859 405.383 359.859 405.05 360.193 405.05 295.737ZM397.5 364.196 389.5 360.193 397.5 356.189Z" fill="#7F7F7F"/><path d="M573.5 271.217 577.25 271.217 577.25 255.705 584.75 255.705 584.75 271.217 588.5 271.217 581 278.723Z" stroke="#787878" stroke-width="1.33333" stroke-miterlimit="8" fill="#A5A5A5" fill-rule="evenodd"/><path d="M712.658 107.199 760.46 107.199 760.46 130.739 712.658 130.739Z" fill="#A5A5A5" fill-rule="evenodd"/><path d="M760.46 107.199 808.262 107.199 808.262 130.739 760.46 130.739Z" fill="#A5A5A5" fill-rule="evenodd"/><path d="M712.658 130.739 760.46 130.739 760.46 154.278 712.658 154.278Z" fill="#E1E1E1" fill-rule="evenodd"/><path d="M760.46 130.739 808.262 130.739 808.262 154.278 760.46 154.278Z" fill="#E1E1E1" fill-rule="evenodd"/><path d="M712.658 154.278 760.46 154.278 760.46 177.818 712.658 177.818Z" fill="#F0F0F0" fill-rule="evenodd"/><path d="M760.46 154.278 808.262 154.278 808.262 177.818 760.46 177.818Z" fill="#F0F0F0" fill-rule="evenodd"/><path d="M712.658 177.818 760.46 177.818 760.46 201.357 712.658 201.357Z" fill="#E1E1E1" fill-rule="evenodd"/><path d="M760.46 177.818 808.262 177.818 808.262 201.357 760.46 201.357Z" fill="#E1E1E1" fill-rule="evenodd"/><path d="M760.46 106.532 760.46 202.025" stroke="#FFFFFF" stroke-width="1.33333" stroke-linejoin="round" stroke-miterlimit="10" fill="none" fill-rule="evenodd"/><path d="M711.991 130.739 808.929 130.739" stroke="#FFFFFF" stroke-width="4" stroke-linejoin="round" stroke-miterlimit="10" fill="none" fill-rule="evenodd"/><path d="M711.991 154.278 808.929 154.278" stroke="#FFFFFF" stroke-width="1.33333" stroke-linejoin="round" stroke-miterlimit="10" fill="none" fill-rule="evenodd"/><path d="M711.991 177.818 808.929 177.818" stroke="#FFFFFF" stroke-width="1.33333" stroke-linejoin="round" stroke-miterlimit="10" fill="none" fill-rule="evenodd"/><path d="M712.658 106.532 712.658 202.025" stroke="#FFFFFF" stroke-width="1.33333" stroke-linejoin="round" stroke-miterlimit="10" fill="none" fill-rule="evenodd"/><path d="M808.262 106.532 808.262 202.025" stroke="#FFFFFF" stroke-width="1.33333" stroke-linejoin="round" stroke-miterlimit="10" fill="none" fill-rule="evenodd"/><path d="M711.991 107.199 808.929 107.199" stroke="#FFFFFF" stroke-width="1.33333" stroke-linejoin="round" stroke-miterlimit="10" fill="none" fill-rule="evenodd"/><path d="M711.991 201.357 808.929 201.357" stroke="#FFFFFF" stroke-width="1.33333" stroke-linejoin="round" stroke-miterlimit="10" fill="none" fill-rule="evenodd"/><text fill="#FFFFFF" font-family="Calibri,Calibri_MSFontService,sans-serif" font-weight="700" font-size="13" transform="matrix(1 0 0 1.0008 730.642 123)">ID<tspan font-size="13" x="39.3019" y="0">Mass</tspan><tspan fill="#000000" font-weight="400" font-size="13" x="-3.24994" y="23.9808">ID1</tspan><tspan fill="#000000" font-weight="400" font-size="13" x="44.6353" y="23.9808">M1</tspan><tspan fill="#000000" font-weight="400" font-size="13" x="-3.24994" y="46.9623">ID2</tspan><tspan fill="#000000" font-weight="400" font-size="13" x="44.6353" y="46.9623">M2</tspan><tspan fill="#000000" font-weight="400" font-size="13" x="-3.24994" y="70.9431">ID3</tspan><tspan fill="#000000" font-weight="400" font-size="13" x="44.6353" y="70.9431">M3</tspan></text><path d="M833.49 109.138 881.421 109.138 881.421 132.677 833.49 132.677Z" fill="#A5A5A5" fill-rule="evenodd"/><path d="M881.421 109.138 929.351 109.138 929.351 132.677 881.421 132.677Z" fill="#A5A5A5" fill-rule="evenodd"/><path d="M833.49 132.677 881.421 132.677 881.421 156.217 833.49 156.217Z" fill="#E1E1E1" fill-rule="evenodd"/><path d="M881.421 132.677 929.351 132.677 929.351 156.217 881.421 156.217Z" fill="#E1E1E1" fill-rule="evenodd"/><path d="M833.49 156.217 881.421 156.217 881.421 179.756 833.49 179.756Z" fill="#F0F0F0" fill-rule="evenodd"/><path d="M881.421 156.217 929.351 156.217 929.351 179.756 881.421 179.756Z" fill="#F0F0F0" fill-rule="evenodd"/><path d="M833.49 179.756 881.421 179.756 881.421 203.296 833.49 203.296Z" fill="#E1E1E1" fill-rule="evenodd"/><path d="M881.421 179.756 929.351 179.756 929.351 203.296 881.421 203.296Z" fill="#E1E1E1" fill-rule="evenodd"/><path d="M881.421 108.471 881.421 203.963" stroke="#FFFFFF" stroke-width="1.33333" stroke-linejoin="round" stroke-miterlimit="10" fill="none" fill-rule="evenodd"/><path d="M832.823 132.677 930.018 132.677" stroke="#FFFFFF" stroke-width="4" stroke-linejoin="round" stroke-miterlimit="10" fill="none" fill-rule="evenodd"/><path d="M832.823 156.217 930.018 156.217" stroke="#FFFFFF" stroke-width="1.33333" stroke-linejoin="round" stroke-miterlimit="10" fill="none" fill-rule="evenodd"/><path d="M832.823 179.756 930.018 179.756" stroke="#FFFFFF" stroke-width="1.33333" stroke-linejoin="round" stroke-miterlimit="10" fill="none" fill-rule="evenodd"/><path d="M833.49 108.471 833.49 203.963" stroke="#FFFFFF" stroke-width="1.33333" stroke-linejoin="round" stroke-miterlimit="10" fill="none" fill-rule="evenodd"/><path d="M929.351 108.471 929.351 203.963" stroke="#FFFFFF" stroke-width="1.33333" stroke-linejoin="round" stroke-miterlimit="10" fill="none" fill-rule="evenodd"/><path d="M832.823 109.138 930.018 109.138" stroke="#FFFFFF" stroke-width="1.33333" stroke-linejoin="round" stroke-miterlimit="10" fill="none" fill-rule="evenodd"/><path d="M832.823 203.296 930.018 203.296" stroke="#FFFFFF" stroke-width="1.33333" stroke-linejoin="round" stroke-miterlimit="10" fill="none" fill-rule="evenodd"/><text fill="#FFFFFF" font-family="Calibri,Calibri_MSFontService,sans-serif" font-weight="700" font-size="13" transform="matrix(1 0 0 1.0008 843.039 125)">Mass</text><g clip-path="url(#clip1)"><text fill="#FFFFFF" font-family="Calibri,Calibri_MSFontService,sans-serif" font-weight="700" font-size="13" transform="matrix(1 0 0 1.0008 888.969 125)">Name</text></g><text font-family="Calibri,Calibri_MSFontService,sans-serif" font-weight="400" font-size="13" transform="matrix(1 0 0 1.0008 848.372 149)">M1<tspan font-size="13" x="49.2639" y="0">N1</tspan><tspan font-size="13" x="0" y="22.9816">M2</tspan><tspan font-size="13" x="49.2639" y="22.9816">N2</tspan><tspan font-size="13" x="0" y="46.9623">M3</tspan><tspan font-size="13" x="49.2639" y="46.9623">N3</tspan></text><path d="M745.99 260.707 797.348 260.707 797.348 284.247 745.99 284.247Z" fill="#A5A5A5" fill-rule="evenodd"/><path d="M797.348 260.707 848.705 260.707 848.705 284.247 797.348 284.247Z" fill="#A5A5A5" fill-rule="evenodd"/><path d="M848.705 260.707 900.063 260.707 900.063 284.247 848.705 284.247Z" fill="#A5A5A5" fill-rule="evenodd"/><path d="M745.99 284.247 797.348 284.247 797.348 307.786 745.99 307.786Z" fill="#E1E1E1" fill-rule="evenodd"/><path d="M797.348 284.247 848.705 284.247 848.705 307.786 797.348 307.786Z" fill="#E1E1E1" fill-rule="evenodd"/><path d="M848.705 284.247 900.063 284.247 900.063 307.786 848.705 307.786Z" fill="#E1E1E1" fill-rule="evenodd"/><path d="M745.99 307.786 797.348 307.786 797.348 331.326 745.99 331.326Z" fill="#F0F0F0" fill-rule="evenodd"/><path d="M797.348 307.786 848.705 307.786 848.705 331.326 797.348 331.326Z" fill="#F0F0F0" fill-rule="evenodd"/><path d="M848.705 307.786 900.063 307.786 900.063 331.326 848.705 331.326Z" fill="#F0F0F0" fill-rule="evenodd"/><path d="M745.99 331.326 797.348 331.326 797.348 354.865 745.99 354.865Z" fill="#E1E1E1" fill-rule="evenodd"/><path d="M797.348 331.326 848.705 331.326 848.705 354.865 797.348 354.865Z" fill="#E1E1E1" fill-rule="evenodd"/><path d="M848.705 331.326 900.063 331.326 900.063 354.865 848.705 354.865Z" fill="#E1E1E1" fill-rule="evenodd"/><path d="M797.348 260.04 797.348 355.533" stroke="#FFFFFF" stroke-width="1.33333" stroke-linejoin="round" stroke-miterlimit="10" fill="none" fill-rule="evenodd"/><path d="M848.705 260.04 848.705 355.533" stroke="#FFFFFF" stroke-width="1.33333" stroke-linejoin="round" stroke-miterlimit="10" fill="none" fill-rule="evenodd"/><path d="M745.323 284.247 900.73 284.247" stroke="#FFFFFF" stroke-width="4" stroke-linejoin="round" stroke-miterlimit="10" fill="none" fill-rule="evenodd"/><path d="M745.323 307.786 900.73 307.786" stroke="#FFFFFF" stroke-width="1.33333" stroke-linejoin="round" stroke-miterlimit="10" fill="none" fill-rule="evenodd"/><path d="M745.323 331.326 900.73 331.326" stroke="#FFFFFF" stroke-width="1.33333" stroke-linejoin="round" stroke-miterlimit="10" fill="none" fill-rule="evenodd"/><path d="M745.99 260.04 745.99 355.533" stroke="#FFFFFF" stroke-width="1.33333" stroke-linejoin="round" stroke-miterlimit="10" fill="none" fill-rule="evenodd"/><path d="M900.063 260.04 900.063 355.533" stroke="#FFFFFF" stroke-width="1.33333" stroke-linejoin="round" stroke-miterlimit="10" fill="none" fill-rule="evenodd"/><path d="M745.323 260.707 900.73 260.707" stroke="#FFFFFF" stroke-width="1.33333" stroke-linejoin="round" stroke-miterlimit="10" fill="none" fill-rule="evenodd"/><path d="M745.323 354.865 900.73 354.865" stroke="#FFFFFF" stroke-width="1.33333" stroke-linejoin="round" stroke-miterlimit="10" fill="none" fill-rule="evenodd"/><text fill="#FFFFFF" font-family="Calibri,Calibri_MSFontService,sans-serif" font-weight="700" font-size="13" transform="matrix(1 0 0 1.0008 765.752 277)">ID<tspan font-size="13" x="42.8578" y="0">Mass</tspan><tspan font-size="13" x="92.2158" y="0">Name</tspan><tspan fill="#000000" font-weight="400" font-size="13" x="-3.25" y="22.9816">ID1</tspan><tspan fill="#000000" font-weight="400" font-size="13" x="48.1912" y="22.9816">M1</tspan><tspan fill="#000000" font-weight="400" font-size="13" x="100.882" y="22.9816">N1</tspan><tspan fill="#000000" font-weight="400" font-size="13" x="-3.25" y="46.9623">ID2</tspan><tspan fill="#000000" font-weight="400" font-size="13" x="48.1912" y="46.9623">M2</tspan><tspan fill="#000000" font-weight="400" font-size="13" x="100.882" y="46.9623">N2</tspan><tspan fill="#000000" font-weight="400" font-size="13" x="-3.25" y="69.9439">ID3</tspan><tspan fill="#000000" font-weight="400" font-size="13" x="48.1912" y="69.9439">M3</tspan><tspan fill="#000000" font-weight="400" font-size="13" x="100.882" y="69.9439">N3</tspan></text><path d="M815.5 235.689 819.5 235.689 819.5 220.677 827.5 220.677 827.5 235.689 831.5 235.689 823.5 243.695Z" stroke="#787878" stroke-width="1.33333" stroke-miterlimit="8" fill="#A5A5A5" fill-rule="evenodd"/><path d="M0 0 0.920735 369.47" stroke="#7F7F7F" stroke-width="0.666667" stroke-miterlimit="8" stroke-dasharray="5.33333 2 0.666667 2" fill="none" fill-rule="evenodd" transform="matrix(-1 0 0 1.0008 456.421 32.5261)"/><path d="M210.5 32.5261 214.734 398.595" stroke="#7F7F7F" stroke-width="0.666667" stroke-miterlimit="8" stroke-dasharray="5.33333 2 0.666667 2" fill="none" fill-rule="evenodd"/><path d="M0 0 930.925 0.000104987" stroke="#7F7F7F" stroke-width="0.666667" stroke-miterlimit="8" stroke-dasharray="5.33333 2 0.666667 2" fill="none" fill-rule="evenodd" transform="matrix(-1 0 0 1.0008 946.426 400.821)"/><path d="M946.5 32.5261 946.5 400.444" stroke="#7F7F7F" stroke-width="0.666667" stroke-miterlimit="8" stroke-dasharray="5.33333 2 0.666667 2" fill="none" fill-rule="evenodd"/><path d="M12.5001 32.5261 14.9879 402.293" stroke="#7F7F7F" stroke-width="0.666667" stroke-miterlimit="8" stroke-dasharray="5.33333 2 0.666667 2" fill="none" fill-rule="evenodd"/><path d="M816.488 154.978 820.354 154.978 820.354 151.477 823.646 151.477 823.646 154.978 827.512 154.978 827.512 158.273 823.646 158.273 823.646 161.774 820.354 161.774 820.354 158.273 816.488 158.273Z" stroke="#787878" stroke-width="1.33333" stroke-miterlimit="8" fill="#A5A5A5" fill-rule="evenodd"/><path d="M0 0 15.223 0.000104987" stroke="#7F7F7F" stroke-width="0.666667" stroke-miterlimit="8" stroke-dasharray="5.33333 2 0.666667 2" fill="none" fill-rule="evenodd" transform="matrix(-1 0 0 1.0008 946.723 27.5221)"/><path d="M0 0 31.1993 0.000104987" stroke="#7F7F7F" stroke-width="0.666667" stroke-miterlimit="8" stroke-dasharray="5.33333 2 0.666667 2" fill="none" fill-rule="evenodd" transform="matrix(-1 0 0 1.0008 43.6993 27.5221)"/></g></svg>